<svg width="246" height="113" viewBox="0 0 246 113" fill="none" xmlns="http://www.w3.org/2000/svg">
<path d="M87.3313 7.15039C91.0193 8.78461 93.9767 9.68382 96.029 13.2896C95.8881 11.4997 95.943 9.65599 96.0526 7.86436C100.056 11.8064 102.756 14.3545 103.258 20.4173C105.592 19.9612 108.456 20.7512 110.448 22.0551C108.013 22.9999 107.07 23.5531 104.771 24.7882C106.161 26.6338 107.589 29.8172 107.157 32.1794C107 33.0409 106.418 35.1669 105.734 35.6785C105.346 35.7029 105.169 35.586 104.852 35.2732C103.396 33.836 102.261 32.3575 100.735 30.9579C103.636 36.4146 106.026 42.3344 108.548 47.9912L98.1923 39.0579C97.2365 37.8677 95.724 37.028 94.5303 35.6578C95.3414 36.9445 96.8538 38.4845 97.9602 39.6342C100.062 41.7258 102.053 44.0376 104.089 46.2828C108.981 51.6757 113.325 55.2291 113.46 63.0883C113.596 71.0349 108.6 75.1276 103.795 80.714C100.389 84.675 96.0621 88.456 94.4234 93.6003C93.3842 96.6955 94.0048 98.3693 93.7564 101.21C94.9343 101.297 100.005 101.755 100.682 102.343L100.757 102.583C100.397 103.206 99.3125 103.038 98.6122 103.045C95.2273 103.08 91.8411 103.096 88.4561 103.096C87.9228 103.095 87.4682 103.079 87.1582 102.619C87.5108 101.794 88.9436 101.427 89.7553 101.294C89.0649 97.5766 88.3856 94.1049 87.8487 90.3501C88.4804 89.2662 93.6228 84.4741 94.818 83.353C97.0771 81.2339 99.6887 78.5492 101.988 76.5274L101.984 74.9207C101.015 75.6328 100.428 76.3489 99.5529 77.1394L94.0172 82.0951L84.8907 90.2433C83.3963 91.5833 81.8328 92.8764 80.4393 94.3163C79.1967 95.6003 79.0404 97.1 79.1198 98.7776C79.9426 99.7555 80.2181 99.9672 81.1774 100.721C82.1217 101.463 84.3716 101.9 84.669 102.606C84.0988 103.547 74.534 102.883 73.0568 103.077C72.4018 103.162 69.8749 103.071 69.2363 102.991C68.9313 102.778 69.0299 102.896 68.8875 102.508C69.4909 101.745 78.0618 102.835 76.6825 97.1735C75.9253 94.0654 75.6245 91.2386 73.652 88.3754C73.3661 87.9604 70.6693 84.4588 70.6661 84.4322C71.565 83.3524 73.2565 82.0562 74.3977 81.1191L80.4765 76.1357C81.2361 75.5011 83.0941 73.7147 83.7298 73.3279C84.612 72.8235 87.5802 70.3194 88.3035 69.569C86.4183 70.6555 85.0738 71.8357 83.2929 72.8499C81.9293 73.9154 80.622 74.6931 79.1964 75.626L74.0906 79.0267C72.5453 80.0431 69.925 81.9516 68.5185 82.7543C67.4713 81.3799 64.8718 78.5315 63.6211 77.3366L93.5547 52.641C91.0949 53.587 89.1231 54.4413 86.6026 55.2434C85.8872 54.7823 84.6171 53.7679 83.8922 53.2127C82.8005 52.3767 81.105 51.2279 80.1493 50.3139C81.3904 45.3808 82.545 40.4142 83.6786 35.4557C85.4493 27.7103 87.5668 20.6431 96.5525 19.3965C98.4133 19.46 99.3576 19.657 101.122 20.1433C100.289 19.6475 99.6247 19.3621 98.7323 18.9707C96.6448 17.9971 94.2576 17.8853 92.0883 18.6594C88.8771 19.7954 86.4679 22.4658 84.7696 25.3193C83.3881 24.7833 82.0545 23.9641 80.7355 23.2622C79.2477 22.4706 77.4972 21.7255 76.1074 20.8142C78.6912 19.0262 80.7813 17.8974 84.036 18.2927C82.2832 16.3081 80.8121 13.9508 79.0786 11.9322C78.8392 11.6534 78.553 11.3501 78.3308 11.0648C82.7796 10.536 86.1954 10.6283 89.5002 14.0727C88.3197 11.7968 87.9683 9.61236 87.3313 7.15039ZM96.9089 27.3049C97.431 27.1698 97.8395 26.7637 97.9777 26.2427C98.1159 25.7217 97.9623 25.1668 97.5758 24.7909C97.1893 24.4151 96.6302 24.2766 96.1129 24.4289C95.3312 24.659 94.8785 25.4731 95.0958 26.2582C95.313 27.0433 96.12 27.5091 96.9089 27.3049Z" fill="#CCAE84"/>
<path d="M66.5321 44.0713C65.3631 43.1352 64.1442 42.6971 62.8664 41.9998C49.9055 34.9266 34.1772 35.8749 21.4124 42.893C20.8297 43.2133 19.0076 44.5972 18.7227 44.4427C18.845 44.0595 19.454 43.1262 19.6852 42.6989C21.8054 38.7793 24.9971 34.9764 28.4796 32.1446C35.5675 26.3808 45.0917 25.4169 53.5894 28.1478C63.0986 31.2035 69.0151 38.0525 74.6284 45.8802C76.1253 47.9924 77.8093 49.9501 79.3612 51.9929C81.1302 54.3214 83.827 55.3441 85.5389 57.1041C82.8002 59.1645 80.1179 61.332 77.4028 63.4391L55.9291 80.2252C55.0469 80.9173 54.1977 81.7313 53.4099 82.3444C52.2011 72.5275 58.3898 66.7801 65.5802 61.5198C66.2171 61.0344 67.6036 60.2442 68.3292 59.8003C67.6297 60.003 65.7416 60.5332 65.1678 60.8961C64.6859 61.0377 60.7681 63.0175 60.2951 63.301C54.534 66.7538 49.8019 72.2511 47.1479 78.4125C46.7065 79.4375 46.137 80.5645 45.8613 81.6278C43.0197 77.8123 41.5999 72.8532 43.7708 68.3813C47.17 61.3791 54.9874 58.33 61.8622 55.8461C62.8248 55.4984 63.8137 55.3544 64.7625 55.0352C64.7401 55.023 64.7178 55.0107 64.6954 54.9986C51.3904 54.8112 39.4419 62.1076 33.4409 73.9646C32.1717 76.4724 31.9877 77.469 31.2407 79.1615C31.1344 78.7259 31.0292 78.2781 30.9562 77.8348C29.5569 69.1218 31.3519 58.9323 39.2933 53.8287C45.2817 49.9802 51.035 49.4094 57.8771 49.0657C59.2647 49.097 60.6518 49.1469 62.038 49.2158C60.597 48.7325 59.3558 48.6215 57.854 48.512C52.9522 48.0267 45.6866 49.1108 41.0023 50.6246C34.1472 52.8398 27.7006 57.5562 23.0476 62.9822C22.5971 63.5076 21.3485 65.5773 20.7882 65.5104C20.5865 64.6457 22.7487 56.7721 23.2473 55.5547C25.6628 49.6111 29.1425 44.6274 35.2442 42.0632C45.6123 37.706 56.4375 40.671 66.4147 44.7185C67.5955 45.2137 68.9016 45.8506 70.1081 46.3774C69.3892 45.7337 67.4243 44.61 66.5321 44.0713Z" fill="#CCAE84"/>
<path d="M166.876 77.3535C172.672 76.7153 177.889 80.8904 178.534 86.6824C179.179 92.4742 175.006 97.693 169.212 98.3431C163.41 98.9941 158.179 94.817 157.535 89.0166C156.889 83.2164 161.073 77.9927 166.876 77.3535ZM168.274 93.3895C171.328 93.2555 173.691 90.6659 173.545 87.6139C173.4 84.5619 170.799 82.2099 167.747 82.3681C164.711 82.5255 162.374 85.1067 162.519 88.1417C162.664 91.1767 165.238 93.5229 168.274 93.3895Z" fill="#CCAE84"/>
<path d="M158.123 22.9508C163.936 22.6614 168.888 27.1273 169.194 32.9365C169.501 38.7458 165.047 43.7081 159.237 44.0323C153.4 44.3579 148.41 39.8837 148.103 34.0499C147.794 28.216 152.285 23.2414 158.123 22.9508ZM158.99 39.0471C162.028 38.8534 164.339 36.2427 164.163 33.2044C163.985 30.1662 161.386 27.8418 158.345 28.0026C155.282 28.1644 152.933 30.7869 153.112 33.8485C153.291 36.9101 155.927 39.2422 158.99 39.0471Z" fill="#CCAE84"/>
<path d="M143.799 77.3699C149.61 76.7257 154.838 80.9251 155.46 86.7361C156.082 92.5471 151.86 97.7563 146.043 98.3546C140.26 98.9495 135.083 94.7582 134.465 88.9796C133.847 83.2009 138.02 78.0104 143.799 77.3699ZM145.22 93.3866C148.258 93.2479 150.611 90.6754 150.477 87.6376C150.343 84.5997 147.773 82.2442 144.734 82.3736C141.687 82.5032 139.324 85.0788 139.459 88.1233C139.593 91.1678 142.174 93.5256 145.22 93.3866Z" fill="#CCAE84"/>
<path d="M195.418 23.3008C200.054 23.6292 204.179 22.6531 208.034 26.247C211.2 29.1991 211.935 33.7708 210.293 37.7231C209.818 38.8688 208.9 39.8656 208.049 40.7395C204.328 44.0791 200.138 43.538 195.308 43.6164C195.363 38.7955 195.285 33.9439 195.314 29.1226C195.32 28.1405 195.239 23.9766 195.418 23.3008ZM200.43 38.7968C202.656 38.3504 202.719 38.3676 204.63 37.2051C206.417 35.2577 206.693 31.7798 204.586 29.925C203.267 28.7641 202.089 28.516 200.448 28.1159C200.478 30.9885 200.61 36.0444 200.43 38.7968Z" fill="#CCAE84"/>
<path d="M227.202 23.3281C227.291 23.3311 227.545 23.3934 227.647 23.4156C227.987 23.8345 227.725 25.8076 227.721 26.4472L227.723 34.835C227.725 36.9828 227.888 41.3467 227.737 43.3226C227.082 43.7131 223.639 43.5862 222.59 43.6093C222.574 42.6076 222.579 41.6058 222.602 40.6042C221.454 40.6545 219.47 40.7055 218.378 40.5617C218.474 41.5261 218.656 42.3647 218.39 43.2819C218.087 43.6002 218.185 43.5063 217.671 43.5835C216.197 43.5599 214.723 43.5732 213.249 43.6235C213.221 38.0234 212.581 31.8802 216.578 27.4195C219.066 24.6421 223.6 23.493 227.202 23.3281ZM218.812 35.7462C220.043 35.7322 221.442 35.6844 222.662 35.7326C222.659 33.8948 222.735 31.3942 222.59 29.6291C222.431 29.5066 222.5 29.5216 222.323 29.4981C220.402 30.4379 219.658 31.5809 218.839 33.5783C218.688 33.9486 218.351 35.3832 218.482 35.7222L218.812 35.7462Z" fill="#CCAE84"/>
<path d="M171.406 23.2422C173.201 23.5406 176.055 23.3779 178.045 23.485C184.364 23.825 188.287 31.5335 182.662 35.8271C184.194 37.6782 185.338 38.936 185.449 41.4748C185.477 42.0868 185.689 42.7357 185.504 43.3485C185.047 43.7455 182.788 43.5841 182.08 43.5701L180.357 43.6284C180.389 40.4638 179.943 38.7645 176.422 38.0452C176.445 39.0602 176.7 42.5077 176.421 43.1553C175.812 43.8419 172.704 43.5287 171.409 43.6458C171.39 42.7386 171.393 41.7906 171.409 40.8826C171.512 35.0206 171.289 29.0961 171.406 23.2422ZM176.436 33.5582C177.499 33.3577 178.649 33.1643 179.58 32.5954C180.046 32.1017 180.305 31.448 180.303 30.7692C180.28 28.8379 177.95 28.2031 176.41 28.0756C176.479 29.5609 176.58 32.114 176.436 33.5582Z" fill="#CCAE84"/>
<path d="M146.354 50.6613C147.891 50.817 149.906 50.6749 151.465 50.5918C151.397 55.9061 151.379 61.2209 151.413 66.5354C151.416 67.233 151.588 70.6681 151.342 70.9834C149.683 70.8939 147.94 70.9205 146.271 70.9223C146.328 68.4957 146.209 65.5545 146.342 63.2303C144.488 63.2054 142.514 63.3201 140.69 63.1926C140.923 65.2347 140.7 68.4527 140.924 70.9631C139.143 70.9022 137.36 70.8996 135.579 70.9556C135.639 66.2254 135.657 61.4946 135.63 56.764C135.628 55.7519 135.456 51.2285 135.737 50.6682C137.157 50.8068 139.425 50.6814 140.856 50.6258C140.858 53.1152 140.796 55.962 140.765 58.4843C142.144 58.3603 144.87 58.4458 146.359 58.4625C146.248 56.0858 146.337 53.0915 146.354 50.6613Z" fill="#CCAE84"/>
<path d="M207.144 50.6175C210.073 50.5936 214.681 52.0666 216.563 54.3903C216.47 53.0867 216.482 51.9745 216.521 50.6812C217.446 50.7483 220.881 50.4821 221.348 50.9453C221.677 52.213 221.566 56.8641 221.566 58.5135C221.584 62.6547 221.569 66.7961 221.522 70.9372C219.935 70.9832 218.062 70.9236 216.44 70.9275C216.473 69.1735 216.482 67.419 216.469 65.6648C216.484 61.5978 216.196 58.9525 212.289 57.0622C212.489 61.1213 211.972 67.1686 212.449 71.01C211.114 70.8474 208.455 70.9187 207.086 70.9371L207.095 57.3623C207.092 55.5672 206.998 52.2839 207.144 50.6175Z" fill="#CCAE84"/>
<path d="M175.26 50.6426C176.57 50.8345 178.937 50.6734 180.305 50.6094C180.396 53.1614 180.202 56.1868 180.209 58.8238C180.947 57.2095 181.703 55.7767 182.532 54.2094C183.116 53.1043 183.527 51.8819 184.218 50.8176C186.057 50.6012 188.01 50.9069 189.841 50.6432C189.021 51.7631 188.521 53.1842 187.859 54.4063C186.821 56.3249 185.799 58.2151 184.895 60.2049C187.721 61.4475 188.523 63.5888 189.144 66.3807C189.324 67.9102 189.403 69.4385 189.608 70.9671C187.824 70.9339 186.036 70.8818 184.253 70.9542C184.294 69.2616 184.437 67.0841 183.6 65.5783C182.832 64.1981 181.658 63.8994 180.281 63.4935C180.271 65.406 180.175 69.2403 180.439 70.976C178.815 70.8773 176.731 70.9098 175.097 70.9417C175.133 68.4153 174.85 51.7814 175.26 50.6426Z" fill="#CCAE84"/>
<path d="M180.808 77.7285C184.285 77.9805 188.655 77.1533 191.599 79.2669C194.778 81.5491 195.73 86.2386 193.337 89.4125C192.289 90.8027 190.267 92.063 188.555 92.3236C187.638 92.5883 186.862 92.6356 185.919 92.6134C186.009 94.3381 186.011 96.2607 186.048 97.9939C184.302 97.9449 182.524 97.9113 180.781 98.0007C180.716 93.6161 180.84 89.1201 180.79 84.7164C180.775 83.2931 180.653 78.9706 180.808 77.7285ZM185.927 87.915C186.976 87.7764 187.701 87.7088 188.632 87.1487C189.668 86.1268 190.179 84.7535 188.968 83.5938C188.039 82.7043 187.09 82.6466 185.883 82.4795C185.941 83.5136 186.072 86.9817 185.927 87.915Z" fill="#CCAE84"/>
<path d="M191.91 50.6848C193.247 50.7881 195.269 50.752 196.648 50.7535C199.353 50.7793 202.059 50.7391 204.761 50.6328C204.848 52.0669 204.674 54.0996 204.722 55.7339C202.151 55.6789 199.301 55.7746 196.797 55.6613C196.867 56.7155 196.886 57.4659 196.861 58.5216C197.82 58.379 201.119 58.4213 202.272 58.4036C202.24 60.0099 202.246 61.6166 202.29 63.2225C200.608 63.2475 198.413 63.3037 196.777 63.1876C196.862 64.1488 196.881 64.8034 196.871 65.7693L196.977 65.9704C198.689 66.1181 202.955 65.9756 204.727 65.9185C204.847 67.6064 204.635 69.0487 204.859 70.9567C200.48 70.8839 196.101 70.8799 191.721 70.9449C191.777 66.2849 191.791 61.6244 191.763 56.9641C191.762 56.0617 191.592 51.1384 191.91 50.6848Z" fill="#CCAE84"/>
<path d="M202.681 77.8018C204.212 77.7642 205.744 77.7576 207.275 77.782C207.312 79.4388 207.313 81.096 207.279 82.7528L205.982 82.6996C204.935 82.6594 201.593 82.3457 201.834 83.9136C202.162 86.0275 206.569 85.7492 208.043 87.5614C210.267 90.2963 210.253 93.7923 207.768 96.3038C205.965 98.1265 203.5 97.9499 201.167 97.9386C199.732 97.9291 198.298 97.9469 196.864 97.992L196.863 93.0008C198.904 93.0614 200.957 93.011 203.001 93.0768C203.837 93.1037 204.734 92.4652 204.659 91.5652C203.809 90.0647 200.552 89.8287 198.976 88.4751C196.246 86.1319 196.187 82.4916 198.269 79.6877C199.346 78.236 200.991 77.9861 202.681 77.8018Z" fill="#CCAE84"/>
<path d="M121.911 23.2422C123.095 23.429 125.43 23.3889 126.677 23.3889C129.385 23.3993 132.092 23.3732 134.799 23.3108C134.756 24.9261 134.785 26.6739 134.783 28.2994C132.256 28.2709 129.399 28.3507 126.914 28.2336C127.042 29.1747 127.025 30.1384 126.968 31.083C128.75 31.0537 130.463 31.0356 132.245 30.8926C132.342 32.3305 132.304 34.2604 132.316 35.7355C131.98 36.0135 127.57 35.8122 126.92 35.7745C127.147 37.7519 127.066 41.3749 127.07 43.5295C125.622 43.652 123.564 43.5637 121.967 43.638C121.899 38.0908 121.991 32.5341 121.925 26.9861C121.91 25.7392 121.86 24.4878 121.911 23.2422Z" fill="#CCAE84"/>
<path d="M172.424 50.7031L172.534 50.7115C172.893 51.279 172.738 54.8324 172.699 55.6837C171.061 55.8812 169.683 55.5981 168.318 56.8288C165.964 58.9515 165.654 62.0499 167.752 64.4752C169.035 65.9592 170.994 65.9007 172.78 66.0198C172.741 67.3858 172.66 69.699 172.876 70.999C171.396 70.9246 170.137 70.8726 168.694 70.5277C163.907 69.6775 160.477 63.8636 161.404 59.253C162.604 53.2811 166.602 50.7714 172.424 50.7031Z" fill="#CCAE84"/>
<path d="M130.89 77.7973L133.225 77.7031C133.208 79.3645 133.219 81.0261 133.256 82.6871C129.578 82.7377 127.039 84.0645 127.021 88.0862C127.019 89.4154 127.544 90.6911 128.484 91.6318C129.772 92.9116 131.515 93.0304 133.226 93.0434C133.185 94.6367 133.228 96.4007 133.236 98.0068L131.011 97.9076C124.381 96.8533 120.686 91.6887 122.327 84.9749C123.379 80.6754 126.717 78.5693 130.89 77.7973Z" fill="#CCAE84"/>
<path d="M131.991 50.6815L133.201 50.625L133.221 55.6261C131.445 55.7513 129.93 55.7095 128.569 57.1002C126.595 59.1166 126.409 62.5597 128.437 64.6126C129.696 65.8877 131.527 65.9704 133.217 65.9453C133.203 67.6363 133.217 69.3273 133.258 71.0178C132.243 70.9422 131.229 70.8527 130.217 70.7495C128.24 70.3066 127.516 70.1149 125.808 68.8917C121.246 65.6255 120.755 58.6429 124.112 54.3552C125.967 51.9839 128.99 50.9941 131.991 50.6815Z" fill="#CCAE84"/>
<path d="M137.218 23.2617C138.678 23.4497 140.896 23.3544 142.381 23.2995C142.118 28.3209 142.383 33.6424 142.255 38.699C143.76 38.5972 145.766 38.6628 147.332 38.6476C147.25 39.6446 147.273 42.3676 147.379 43.3581C146.853 43.7545 138.55 43.5561 137.17 43.6232C137.279 41.6168 137.205 38.8679 137.205 36.821L137.218 23.2617Z" fill="#CCAE84"/>
<path d="M187.784 23.2988C189.409 23.3948 191.347 23.3588 192.987 23.3379L192.876 36.8026C192.876 38.4852 192.814 41.8584 193.041 43.4013C192.352 43.6768 188.837 43.5934 187.782 43.6206C187.713 37.5691 187.833 31.5082 187.731 25.456C187.719 24.7269 187.701 24.0258 187.784 23.2988Z" fill="#CCAE84"/>
<path d="M153.962 50.5742C154.998 50.8644 157.883 50.6561 159.036 50.5983C159.177 57.3344 158.907 64.1649 159.088 71.0012C157.524 70.899 155.463 70.8697 153.906 70.9867L153.901 57.4318C153.896 56.0914 153.802 51.6155 153.962 50.5742Z" fill="#CCAE84"/>
<path d="M83.293 72.8493C85.0738 71.8351 86.4183 70.6549 88.3035 69.5684C87.5803 70.3188 84.612 72.8229 83.7298 73.3272L83.293 72.8493Z" fill="#CCAE84"/>
<path d="M57.8541 48.5117C59.3559 48.6211 60.5971 48.7321 62.0381 49.2155C60.6519 49.1466 59.2648 49.0967 57.8772 49.0653C57.5764 48.9893 56.9126 48.9042 56.582 48.8512C56.949 48.6691 57.3617 48.857 57.8541 48.5117Z" fill="#CCAE84"/>
<path d="M97.9591 39.6346C96.8528 38.4849 95.3403 36.945 94.5293 35.6582C95.7229 37.0285 97.2355 37.8682 98.1913 39.0583L97.9591 39.6346Z" fill="#CCAE84"/>
<path d="M65.1684 60.8965C65.7422 60.5337 67.6303 60.0034 68.3298 59.8008C67.6042 60.2446 66.2177 61.0349 65.5807 61.5202C65.3914 61.454 65.3523 61.4258 65.2285 61.2681L65.1865 61.3617L65.0488 61.2714L65.2139 61.1063L65.1684 60.8965Z" fill="#CCAE84"/>
<path d="M66.5334 44.0723C67.4256 44.611 69.3905 45.7347 70.1094 46.3784C68.9029 45.8516 67.5968 45.2147 66.416 44.7195L66.6047 44.6089L66.4645 44.4056L66.5334 44.0723Z" fill="#CCAE84"/>
<path d="M98.7306 18.9707C99.623 19.3621 100.287 19.6476 101.12 20.1434C99.3559 19.657 98.4116 19.46 96.5508 19.3965C96.9652 19.1075 97.6406 19.4851 98.7306 18.9707Z" fill="#CCAE84"/>
</svg>
